# xmcd
#
# Track frame offsets:
#	150
#	29865
#	45204
#	58831
#	83455
#	96411
#	128170
#	154569
#	172815
#	199085
#
# Disc length: 2859 seconds
#
# Revision: 1
# Processed by: cddbd v1.5.1PL0 Copyright (c) Steve Scherf et al.
# Submitted via: audiograbber 1.83.01
#
DISCID=780b290a
DTITLE=JJ Cale - El Mocambo,Toronto
DYEAR=1900
DGENRE=
TTITLE0=Ride me High
TTITLE1=Humdinger
TTITLE2=Artificial Paradise
TTITLE3=Riverboat Song
TTITLE4=Downtown LA w JJ Cale Talks CBC
TTITLE5=Mojo Working
TTITLE6=Crazy Mama
TTITLE7=Cocaine
TTITLE8=After Midnight
TTITLE9=Magnolia
EXTD=
EXTT0=
EXTT1=
EXTT2=
EXTT3=
EXTT4=
EXTT5=
EXTT6=
EXTT7=
EXTT8=
EXTT9=
PLAYORDER=
